# xmcd
#
# Track frame offsets:
#	150
#	18401
#	39475
#	54143
#	73311
#	84964
#	96419
#
# Disc length: 1527 seconds
#
# Revision: 0
# Processed by: cddbd v1.5PL3 Copyright (c) Steve Scherf et al.
# Submitted via: dBpowerAMP V4.0
#
DISCID=5205f507
DTITLE=Kuto - Denbora amaitzen zaigu
DYEAR=1900
DGENRE=
TTITLE0=Argian iluntasuna
TTITLE1=11 urte
TTITLE2=Zein da zein
TTITLE3=Urrezko ametsak
TTITLE4=Pentsamendu bat
TTITLE5=Bide baten bila
TTITLE6=Itsasoa
EXTD=
EXTT0=
EXTT1=
EXTT2=
EXTT3=
EXTT4=
EXTT5=
EXTT6=
PLAYORDER=
